<?xml version="1.0" standalone="no"?>
<!DOCTYPE svg PUBLIC "-//W3C//DTD SVG 20010904//EN"
 "http://www.w3.org/TR/2001/REC-SVG-20010904/DTD/svg10.dtd">
<svg version="1.0" xmlns="http://www.w3.org/2000/svg"
 width="354.000000pt" height="354.000000pt" viewBox="0 0 354.000000 354.000000"
 preserveAspectRatio="xMidYMid meet">
<metadata>
Created by potrace 1.14, written by Peter Selinger 2001-2017
</metadata>
<g transform="translate(0.000000,354.000000) scale(0.100000,-0.100000)"
fill="#000000" stroke="none">
<path d="M1667 3424 c-1 -2 -18 -6 -37 -9 -19 -3 -48 -8 -65 -12 -16 -4 -32
-7 -35 -8 -25 -5 -118 -40 -129 -49 -8 -6 -15 -9 -16 -6 -3 8 -142 -77 -177
-108 -17 -15 -44 -39 -60 -54 -16 -16 -33 -28 -38 -28 -15 0 -177 -164 -184
-188 -4 -12 -11 -22 -16 -22 -5 0 -15 -12 -23 -27 -79 -156 -98 -195 -114
-243 -10 -30 -21 -56 -25 -58 -4 -2 -4 -10 -2 -17 3 -8 2 -20 -2 -27 -5 -7 -9
-17 -11 -23 -1 -5 -4 -21 -7 -35 -3 -14 -9 -38 -12 -55 -24 -105 -44 -282 -44
-387 0 -98 -2 -108 -18 -108 -31 0 -92 -77 -99 -125 -1 -11 -6 -43 -11 -71 -9
-58 -8 -99 11 -329 10 -117 32 -179 72 -197 20 -9 23 -17 21 -55 -4 -76 30
-236 66 -309 48 -98 52 -104 60 -104 5 0 8 -5 8 -11 0 -13 140 -190 230 -289
8 -9 31 -35 50 -56 72 -79 185 -137 316 -159 21 -4 44 -8 49 -9 45 -12 96 -19
152 -21 69 -2 99 3 202 34 19 6 38 8 42 5 5 -3 9 -1 9 4 0 5 28 19 63 32 34
12 80 30 102 40 327 149 384 191 540 395 42 56 60 81 75 105 7 12 16 11 58 -9
89 -42 137 -9 259 179 20 30 50 84 66 120 17 36 35 68 41 72 6 4 7 8 3 8 -4 0
-3 8 2 18 13 24 24 97 22 151 -2 59 -35 117 -77 133 l-34 14 24 44 c13 25 31
65 39 90 8 25 21 59 28 75 13 33 18 51 21 78 1 9 6 17 10 17 4 0 7 3 6 8 -3
12 21 121 44 197 11 39 22 81 25 95 7 38 10 224 4 235 -3 6 -6 19 -7 30 -2 17
-8 50 -18 105 -2 8 -6 22 -9 30 -3 8 -13 38 -22 67 -18 58 -75 151 -126 203
-19 20 -43 47 -54 62 -28 35 -70 55 -151 69 -38 6 -76 18 -85 26 -9 7 -19 36
-22 66 -8 77 -28 107 -130 196 -143 127 -269 179 -446 186 -42 2 -96 6 -121
10 -49 7 -287 14 -293 9z"/>
</g>
</svg>
